<svg xmlns="http://www.w3.org/2000/svg" xmlns:xlink="http://www.w3.org/1999/xlink" width="260" height="260" viewBox="0 0 260 260"><defs><style>.a{fill:#fff;}.b{fill:url(#a);}.c{fill:url(#b);}.d{fill:url(#c);}.e{fill:url(#d);}.f{fill:url(#e);}.cr,.g,.t{fill:none;}.h{fill:url(#f);}.i{fill:url(#g);}.j{fill:url(#h);}.k{fill:url(#i);}.l{fill:url(#j);}.m{fill:url(#k);}.n{fill:url(#l);}.o{fill:url(#m);}.p{fill:url(#n);}.cp,.q{opacity:0.8;}.q{fill:url(#o);}.r{clip-path:url(#p);}.s{fill:#2177ff;}.cr,.t{stroke:#fff;}.t{stroke-width:7px;}.bj,.cm,.u{opacity:0.5;}.u{fill:url(#u);}.v{clip-path:url(#v);}.w{fill:#dbe5f6;}.x{clip-path:url(#x);}.ac,.y{fill:#5f2020;}.y{opacity:0.204;}.z{clip-path:url(#z);}.aa{fill:url(#aa);}.ab{clip-path:url(#ac);}.ac,.av{opacity:0.2;}.ad{clip-path:url(#ae);}.ae{fill:url(#af);}.af{fill:#353458;}.ag{fill:url(#ag);}.ah{fill:url(#ah);}.ai{clip-path:url(#ai);}.aj{fill:url(#aj);}.ak,.al,.as,.au,.br{opacity:0.3;}.ak{fill:url(#ak);}.al{fill:url(#al);}.am{fill:#051d4e;}.an{clip-path:url(#an);}.ao{fill:url(#ao);}.ap{fill:url(#ap);}.aq{clip-path:url(#ar);}.ar,.as,.av,.cm{fill:rgba(0,0,0,0);}.ar,.av{stroke:#591e1e;}.ar,.as{stroke-linecap:round;stroke-linejoin:round;}.ar,.as,.av,.cm,.cr{stroke-miterlimit:10;}.ar{opacity:0.15;}.as{stroke:#1e3159;}.at{fill:#672323;opacity:0.1;}.au{fill:#b05856;}.aw{clip-path:url(#at);}.ax{fill:#3d82f0;opacity:0.484;}.ay{clip-path:url(#au);}.az{opacity:0.328;}.ba{fill:url(#av);}.bb{fill:url(#aw);}.bc{fill:url(#ax);}.bd{fill:url(#ay);}.be{fill:#ffecdf;}.bf{clip-path:url(#az);}.bg{fill:#f6cdc7;}.bh,.bm{opacity:0.6;}.bh{fill:url(#ba);}.bi{fill:url(#bb);}.bj{fill:url(#bc);}.bk{clip-path:url(#bd);}.bl{fill:url(#be);}.bm{fill:url(#bf);}.bn{fill:url(#bg);}.bo{fill:url(#bh);}.bp{fill:url(#bi);}.bq{clip-path:url(#bj);}.br{fill:url(#bk);}.bs{fill:url(#bl);}.bt{fill:url(#bm);}.bu{fill:url(#bn);}.bv{clip-path:url(#bp);}.bw{fill:#e4a1a1;opacity:0.225;}.bx{fill:#0c41a4;}.by{fill:url(#bq);}.bz{fill:#174eb5;}.ca{fill:url(#br);}.cb{fill:url(#bs);}.cc{fill:url(#bt);}.cd{fill:#ff9600;}.ce{fill:url(#bu);}.cf{fill:url(#bv);}.cg{fill:#d6e3fa;}.ch{fill:url(#bw);}.ci{fill:url(#bx);}.cj{clip-path:url(#by);}.ck{clip-path:url(#ca);}.cl{clip-path:url(#cc);}.cm{stroke:#489c71;}.cn{clip-path:url(#ce);}.co{clip-path:url(#cg);}.cp{fill:url(#ch);}.cq{clip-path:url(#ci);}.cs{stroke:none;}.ct{filter:url(#s);}.cu{filter:url(#q);}</style><radialGradient id="a" cx="54.814" cy="-17.099" r="197.155" gradientTransform="translate(44.732 -15.855) scale(0.17 0.17)" gradientUnits="userSpaceOnUse"><stop offset="0" stop-color="#edf3fd"/><stop offset="0.409" stop-color="#dce8fb"/><stop offset="1" stop-color="#aebdd8"/></radialGradient><radialGradient id="b" cx="22.054" cy="-0.334" r="19.146" gradientTransform="translate(8.8 -0.922) scale(0.566 0.566)" gradientUnits="userSpaceOnUse"><stop offset="0" stop-color="#9b4747"/><stop offset="1" stop-color="#522262"/></radialGradient><linearGradient id="c" x1="1.337" y1="-0.028" x2="0.7" y2="1.035" gradientUnits="objectBoundingBox"><stop offset="0" stop-color="#ffccb5"/><stop offset="1" stop-color="#df1e1e"/></linearGradient><linearGradient id="d" x1="0.096" y1="0.261" x2="0.152" y2="0.643" gradientTransform="matrix(1, 0, 0, 1, 0, 0)" xlink:href="#b"/><linearGradient id="e" x1="0.119" y1="0.181" x2="0.623" y2="1.034" xlink:href="#c"/><linearGradient id="f" x1="0.334" y1="0.688" x2="0.334" y2="0.057" gradientUnits="objectBoundingBox"><stop offset="0" stop-color="#ffa47e"/><stop offset="1" stop-color="#ab0a0a"/></linearGradient><linearGradient id="g" x1="1.263" y1="0.499" x2="-0.031" y2="0.884" xlink:href="#c"/><linearGradient id="h" x1="0.5" y1="1" x2="0.5" gradientUnits="objectBoundingBox"><stop offset="0" stop-color="#06275a"/><stop offset="1" stop-color="#223762"/></linearGradient><linearGradient id="i" x1="0.522" y1="0.417" x2="0.893" y2="0.649" gradientUnits="objectBoundingBox"><stop offset="0" stop-color="#ffdede"/><stop offset="1" stop-color="#fff"/></linearGradient><linearGradient id="j" x1="1.007" y1="1.011" x2="0.229" y2="0.678" gradientUnits="objectBoundingBox"><stop offset="0" stop-color="#002964"/><stop offset="0.627" stop-color="#4270b4"/><stop offset="1" stop-color="#4f8ded"/></linearGradient><linearGradient id="k" x1="0.784" y1="-0.032" x2="0.4" y2="1.525" gradientUnits="objectBoundingBox"><stop offset="0" stop-color="#032b67"/><stop offset="1" stop-color="#26529b"/></linearGradient><linearGradient id="l" x1="0.392" y1="0.046" x2="0.917" y2="1.011" gradientUnits="objectBoundingBox"><stop offset="0" stop-color="#b1ffbe"/><stop offset="0.444" stop-color="#5cdb8e"/><stop offset="1" stop-color="#149654"/></linearGradient><linearGradient id="m" x1="0.797" y1="-0.11" x2="0.918" y2="0.898" xlink:href="#l"/><linearGradient id="n" x1="0.322" y1="0.038" x2="0.788" y2="1.009" xlink:href="#l"/><radialGradient id="o" cx="20.448" cy="3.259" r="25.907" gradientUnits="userSpaceOnUse"><stop offset="0" stop-color="#b2d0ff"/><stop offset="0.409" stop-color="#b8cbed"/><stop offset="1" stop-color="#7c98ca"/></radialGradient><clipPath id="p"><rect class="a" width="260" height="260" transform="translate(-8568 -9633)"/></clipPath><filter id="q" x="-2" y="14" width="264" height="264" filterUnits="userSpaceOnUse"><feOffset dy="19" input="SourceAlpha"/><feGaussianBlur stdDeviation="19" result="r"/><feFlood flood-opacity="0.122"/><feComposite operator="in" in2="r"/><feComposite in="SourceGraphic"/></filter><filter id="s" x="-2" y="14" width="264" height="264" filterUnits="userSpaceOnUse"><feOffset dy="19" input="SourceAlpha"/><feGaussianBlur stdDeviation="19" result="t"/><feFlood flood-opacity="0.122"/><feComposite operator="in" in2="t"/><feComposite in="SourceGraphic"/></filter><radialGradient id="u" cx="54.814" cy="-17.099" r="197.155" xlink:href="#a"/><clipPath id="v"><path class="b" d="M40.108,15.254c21.595,0,39.1-2.968,39.1-6.63s-17.506-6.63-39.1-6.63-39.1,2.968-39.1,6.63S18.514,15.254,40.108,15.254Z" transform="translate(-1.007 -1.994)"/></clipPath><clipPath id="x"><path class="c" d="M3.248,9.617c1.171.761,11.959,3.583,13.417,4.074s5.775.11,6.4-3.178-.629-4.922-4.129-6.183S6.022,1.741,4.953,1.789,1.834,3.484,1.861,5.082,2.077,8.856,3.248,9.617Z" transform="translate(-1.861 -1.788)"/></clipPath><clipPath id="z"><path class="d" d="M1.559,8.879l6.157,1.186Q11.548,6.948,8.8,2.953A44.162,44.162,0,0,0,3.077,1.427Z" transform="translate(-1.559 -1.427)"/></clipPath><linearGradient id="aa" x1="0.503" y1="1.025" x2="0.503" gradientUnits="objectBoundingBox"><stop offset="0" stop-color="#f97070" stop-opacity="0"/><stop offset="1" stop-color="#940000"/></linearGradient><clipPath id="ac"><path class="e" d="M23.885,9.924c-1.2.72-12.077,3.163-13.551,3.6s-5.775-.091-6.285-3.4.8-4.9,4.343-6.035S21.387,1.955,22.454,2.04s3.058,1.8,2.975,3.4S25.082,9.2,23.885,9.924Z" transform="translate(-3.944 -2.035)"/></clipPath><clipPath id="ae"><path class="f" d="M13.4,8.987l-6.2.97Q3.488,6.709,6.37,2.812a44.165,44.165,0,0,1,5.777-1.325Z" transform="translate(-5.112 -1.487)"/></clipPath><linearGradient id="af" x1="0.5" y1="1.004" x2="0.5" y2="-0.01" xlink:href="#aa"/><linearGradient id="ag" x1="0.557" y1="0.627" x2="0.557" y2="0.348" gradientUnits="objectBoundingBox"><stop offset="0" stop-opacity="0.639"/><stop offset="1" stop-opacity="0"/></linearGradient><linearGradient id="ah" x1="0.352" y1="0.152" x2="0.331" y2="0.492" gradientUnits="objectBoundingBox"><stop offset="0" stop-color="#ff5e5b" stop-opacity="0.502"/><stop offset="1" stop-color="#282828" stop-opacity="0"/></linearGradient><clipPath id="ai"><path class="g" d="M.108,11.908A1.007,1.007,0,0,1,0,11.486c0-1.775,7.125-.367,9.467-3.244C11.461,5.793,11.974.97,11.974.663q0-1.62,33.232.72,1.639,4.564,3.369,5.792C54.3,11.238,64.8,11.193,64.8,12.63a.5.5,0,0,1-.165.331C54.236,24.035,41.7,28.2,32.306,28.2,20.719,28.2,3.59,19.366.108,11.908Z"/></clipPath><linearGradient id="aj" x1="0.499" y1="-0.042" x2="0.562" y2="1.144" gradientUnits="objectBoundingBox"><stop offset="0" stop-color="#300"/><stop offset="1" stop-color="#e3a1a1" stop-opacity="0.188"/></linearGradient><linearGradient id="ak" x1="0.5" y1="-0.013" x2="0.562" y2="1.156" gradientUnits="objectBoundingBox"><stop offset="0" stop-color="#510000"/><stop offset="1" stop-opacity="0.188"/></linearGradient><linearGradient id="al" y1="-0.013" x2="0.438" y2="1.156" xlink:href="#ak"/><clipPath id="an"><path class="h" d="M18.925,7.778c0,1.823.137,2.7-.821,4.3s-5.857,11.229-2.518,15.535,17.06,4.65,17.641-1.029-3.071-13.291-4.149-15.446a7.7,7.7,0,0,1-.4-5.633C29.078,4.569,18.925,5.955,18.925,7.778Z" transform="translate(-14.436 -5.204)"/></clipPath><linearGradient id="ao" x1="0.727" y1="0.504" x2="0.099" y2="0.644" gradientUnits="objectBoundingBox"><stop offset="0" stop-color="#f9af70"/><stop offset="1" stop-color="#f09c3d" stop-opacity="0"/></linearGradient><linearGradient id="ap" x1="0.503" y1="1" x2="0.503" gradientUnits="objectBoundingBox"><stop offset="0" stop-color="#f97070" stop-opacity="0"/><stop offset="1" stop-color="#f0703d"/></linearGradient><clipPath id="ar"><path class="i" d="M13.112,24.969H11.3C8.07,24.969,4.33,21.7,4,17.658l-.711-8.67A6.633,6.633,0,0,1,10,1.678h4.59A6.633,6.633,0,0,1,21.3,8.988l-.711,8.67C20.257,21.69,16.357,24.959,13.112,24.969Z" transform="translate(-3.263 -1.678)"/></clipPath><clipPath id="at"><path class="j" d="M8.572,7.6l.114,2.667a1.36,1.36,0,0,0,1.359,1.3h9.263a1.36,1.36,0,0,0,1.36-1.36V7.43a57.92,57.92,0,0,1,2.006,12.825c0,4.23.794,10.922.884,12.587s6.171,5.184,7.225,4.08-3.087-18.508-4.2-24.945-5-12.244-12.8-11.968S3.052,8.515,2.534,12.588-.747,35.523.194,36.922s6.676-2.581,6.676-4.08V20.254C6.869,16.025,8.572,7.6,8.572,7.6Z" transform="translate(0 0)"/></clipPath><clipPath id="au"><path class="a" d="M8.228,22.758c0,3.84,3.167,6.3,8.13,6.3s8.066-2.188,8.32-6.38q2.392,6.3,1.345,39.364a17.932,17.932,0,0,1-8.6,2.14c-4.314-.072-8.985-1.818-10.177-4.288S8.228,18.918,8.228,22.758Z" transform="translate(-6.887 -22.489)"/></clipPath><linearGradient id="av" x1="-0.104" y1="0.436" x2="0.756" y2="0.915" gradientUnits="objectBoundingBox"><stop offset="0" stop-color="#fee9e9"/><stop offset="1" stop-color="#f8ccbc"/></linearGradient><linearGradient id="aw" x1="0.497" y1="0.54" x2="0.781" y2="0.873" gradientUnits="objectBoundingBox"><stop offset="0" stop-color="#fff" stop-opacity="0"/><stop offset="1" stop-color="#a00000"/></linearGradient><linearGradient id="ax" x1="0.146" y1="0.134" x2="1.072" y2="0.652" xlink:href="#c"/><linearGradient id="ay" x1="1.072" y1="0.1" x2="-0.062" y2="0.757" xlink:href="#c"/><clipPath id="az"><path class="g" d="M19.41,63.092c-1.436-.578-2.184-3.115-2.182-6.321A25.17,25.17,0,0,1,18,50.766a59.973,59.973,0,0,0,1.948-12.62c0-1.107.153-3.5.153-5.189,0-1.619-.14-2.586-.693-1.137-1.128,2.959-2.53,9.252-4.473,11.947s-4.889,1.4-8.794,1.4C4.579,40.417,1.521,40.924.233,41.756L0,41.926a2.481,2.481,0,0,1,.233-.17A66.005,66.005,0,0,0,7.645,35.3c.589-.55,6.2-22.891,8.215-25.243S30.3,1.165,31.62,0c-.048.582-.882,1.923-.883,3.317,0,1.411.851,2.876,4.233,3.667-3.2,3.038-3.989,5.851-3.99,8.429a48.808,48.808,0,0,0,.64,5.528,25.153,25.153,0,0,1,.116,2.593c0,3.783-.529,8.7-.529,13.413v.308c0,5.675.007,8.354.413,16.793.322,6.7,2.06,9.306,2.06,10.872a1.511,1.511,0,0,1-.484,1.145,2.17,2.17,0,0,1-1.5.389C28.393,66.454,21.285,63.847,19.41,63.092ZM.233,41.756Z"/></clipPath><linearGradient id="ba" x1="0.587" y1="0.5" x2="0.401" y2="1.267" gradientUnits="objectBoundingBox"><stop offset="0" stop-color="#f68282"/><stop offset="1" stop-color="#d1adad" stop-opacity="0"/></linearGradient><linearGradient id="bb" y1="0.858" x2="1.014" y2="0.109" gradientUnits="objectBoundingBox"><stop offset="0" stop-color="#e4a9a9"/><stop offset="1" stop-color="#e8a9a9" stop-opacity="0.094"/></linearGradient><linearGradient id="bc" x1="1.011" y1="0.106" x2="0" y2="0.841" xlink:href="#bb"/><clipPath id="bd"><path class="g" d="M7.844,63.316S5.7,56.054,5.678,52.121c-.019-3.041-1-15.031-1.306-18.758-.7-8.473-1.329-9.715-1.33-11.284a6.767,6.767,0,0,1,.041-.721A51.612,51.612,0,0,0,3.835,15.4c0-2.534-.774-5.286-3.835-8.188,3.356-.785,4.225-2.293,4.226-3.752S3.352.58,3.239,0C4.561,1.165,17.1,7.924,19.109,10.276s8.118,26.344,8.706,26.895S37.8,40.411,40.3,41.22a2.909,2.909,0,0,0-2.758,2.935,5.837,5.837,0,0,0,.6,2.386c.111.033.163.071.163.113,0,.708-15.417,2.434-17.253-.113-1.944-2.7-4.366-11.539-5.493-14.5-.376-.987-.5-.986-.5-.467,0,1.038.5,4.149.5,5.595v.065c0,2.245.014,9.348,1.409,13.754a18.863,18.863,0,0,1,.772,5.494c0,3.253-.745,6.254-2.182,6.832A18.58,18.58,0,0,1,9.787,64.89C8.658,64.89,7.844,64.488,7.844,63.316Z"/></clipPath><linearGradient id="be" x1="1.152" y1="0.127" x2="0" y2="0.654" xlink:href="#bb"/><linearGradient id="bf" x1="0.413" x2="0.599" y2="1.267" xlink:href="#ba"/><linearGradient id="bg" x1="-0.004" y1="0.647" x2="0.431" y2="0.394" xlink:href="#bb"/><linearGradient id="bh" x1="0.656" y1="0.715" x2="0.616" y2="0.378" xlink:href="#ag"/><linearGradient id="bi" x1="0.648" y1="-0.163" x2="0.562" y2="0.179" xlink:href="#ah"/><clipPath id="bj"><path class="g" d="M0,32.64A3.757,3.757,0,0,1,.971,30c2.66-2.8,30.064-24.021,35.621-26.728s13.8-5.384,16.537-.78a6.689,6.689,0,0,1,1.029,3.471c0,3.336-2.808,6.681-7.44,10.848-6.225,5.6-36.356,18.833-40.79,20.671a4,4,0,0,1-1.539.321C1.84,37.807,0,35.091,0,32.64Z"/></clipPath><linearGradient id="bk" x1="0.145" y1="0.727" x2="0.622" y2="0.501" gradientUnits="objectBoundingBox"><stop offset="0" stop-color="#a1b8e3" stop-opacity="0.235"/><stop offset="1" stop-color="#002b6f"/></linearGradient><linearGradient id="bl" x1="0.555" y1="0.879" x2="0.611" y2="0.623" xlink:href="#ag"/><linearGradient id="bm" x1="0.324" y1="-0.061" x2="0.324" y2="0.492" xlink:href="#ah"/><linearGradient id="bn" x1="0.494" y1="0.382" x2="-0.061" y2="0.5" xlink:href="#i"/><clipPath id="bp"><path class="k" d="M4.628,1.885c2.493,1.96,2.889,5.7,2.641,7.453A35.118,35.118,0,0,1,5.217,15.7a12.578,12.578,0,0,0-4-6.8C3.414,8.071,5.864,6.5,4.628,1.885Z" transform="translate(-1.213 -1.885)"/></clipPath><linearGradient id="bq" x1="0.244" y1="-0.019" x2="0.501" y2="1.117" gradientUnits="objectBoundingBox"><stop offset="0" stop-color="#91d0ff"/><stop offset="1" stop-color="#58a3ff"/></linearGradient><linearGradient id="br" x1="0.504" y1="-0.024" x2="0.504" y2="1.043" xlink:href="#bq"/><linearGradient id="bs" x1="0.512" y1="-0.027" x2="0.512" y2="1.06" xlink:href="#bq"/><linearGradient id="bt" x1="0.645" y1="-0.014" x2="0.407" y2="0.639" gradientUnits="objectBoundingBox"><stop offset="0" stop-color="#ff9d61"/><stop offset="1" stop-color="#ffd873"/></linearGradient><linearGradient id="bu" x1="0.499" y1="0.915" x2="0.056" y2="0.5" xlink:href="#k"/><linearGradient id="bv" x1="1.008" y1="0.035" x2="0.041" y2="1.009" gradientUnits="objectBoundingBox"><stop offset="0" stop-color="#91d0ff"/><stop offset="0.481" stop-color="#6db4ff"/><stop offset="1" stop-color="#2881ee"/></linearGradient><linearGradient id="bw" x1="1.017" y1="0.5" x2="-0.008" y2="0.5" gradientUnits="objectBoundingBox"><stop offset="0" stop-color="#d9e5f6" stop-opacity="0.714"/><stop offset="1" stop-color="#b2c6ea"/></linearGradient><linearGradient id="bx" x1="1.007" y1="1.011" x2="0.229" y2="0.678" xlink:href="#j"/><clipPath id="by"><path class="l" d="M24.283,2.232a8.914,8.914,0,0,1,1.2,4.442c0,5.68-5.48,10.285-12.24,10.285S1,12.355,1,6.674A8.946,8.946,0,0,1,2.335,2C7.757,2.857,18.55,2.8,24.283,2.232Z" transform="translate(-1 -1.999)"/></clipPath><clipPath id="ca"><path class="m" d="M13.135,1C19.285,1,24.27,2.18,24.27,3.635S19.285,6.27,13.135,6.27,2,5.09,2,3.635,6.985,1,13.135,1Z" transform="translate(-2 -1)"/></clipPath><clipPath id="cc"><path class="n" d="M11.71,32.111A35.627,35.627,0,0,0,4.4,15.28C1.438,11.425,1.428,2.035,1,1c2.325.8,6.5,2.86,10.71,8.67C16.123,15.761,13.324,28.182,11.71,32.111Z" transform="translate(-1 -1)"/></clipPath><clipPath id="ce"><path class="o" d="M20.15,21.919A29.7,29.7,0,0,0,8.914,11.54c-3.557-1.945-6.72-9.1-7.4-9.748,2.043-.171,5.922,0,11.087,3.014C18.021,7.968,20.06,18.381,20.15,21.919Z" transform="translate(-1.519 -1.746)"/></clipPath><clipPath id="cg"><path class="p" d="M3.633,24.255a29.789,29.789,0,0,1,9.845-11.784c3.29-2.4,5.513-9.93,6.1-10.66-2.057.093-5.9.761-10.653,4.431C3.943,10.089,3.263,20.721,3.633,24.255Z" transform="translate(-3.548 -1.811)"/></clipPath><radialGradient id="ch" cx="20.448" cy="3.259" r="25.907" xlink:href="#o"/><clipPath id="ci"><path class="q" d="M12.54,1A10.54,10.54,0,1,1,2,11.54,10.54,10.54,0,0,1,12.54,1Z" transform="translate(-2 -1)"/></clipPath></defs><g class="r" transform="translate(8568 9633)"><g class="cu" transform="matrix(1, 0, 0, 1, -8568, -9633)"><circle class="s" cx="75" cy="75" r="75" transform="translate(55 52)"/></g><g class="ct" transform="matrix(1, 0, 0, 1, -8568, -9633)"><g class="t" transform="translate(55 52)"><circle class="cs" cx="75" cy="75" r="75"/><circle class="g" cx="75" cy="75" r="71.5"/></g></g><g transform="translate(-8476.982 -9468.582)"><path class="u" d="M40.108,15.254c21.595,0,39.1-2.968,39.1-6.63s-17.506-6.63-39.1-6.63-39.1,2.968-39.1,6.63S18.514,15.254,40.108,15.254Z" transform="translate(-1.007 -1.994)"/><g class="v" transform="translate(0 0)"><path class="w" d="M23.249,18.228c.846.209,4.372-1.78,5.232-1.688,4.092.439,7.188-.918,10.838-1.87C45.7,13,52.347,8.955,52.347,6.319,52.347,1.859,40.286,0,26.367,0S0,1.092,0,5.552c0,3.07,6.378,6.3,13.612,9.118C16.887,15.944,19.538,17.312,23.249,18.228Z" transform="translate(13.606 -8.67)"/></g></g><g transform="translate(-8423.116 -9461.816)"><path class="c" d="M3.248,9.617c1.171.761,11.959,3.583,13.417,4.074s5.775.11,6.4-3.178-.629-4.922-4.129-6.183S6.022,1.741,4.953,1.789,1.834,3.484,1.861,5.082,2.077,8.856,3.248,9.617Z" transform="translate(-1.861 -1.788)"/><g class="x" transform="translate(0 0)"><path class="y" d="M1.848,11.64c2.544-.926,12.838-5.765,12.838-8S1.949-1.606.876,1.019-.7,12.566,1.848,11.64Z" transform="translate(0.504 -1.515)"/></g></g><g transform="translate(-8425.378 -9462.389)"><path class="d" d="M1.559,8.879l6.157,1.186Q11.548,6.948,8.8,2.953A44.162,44.162,0,0,0,3.077,1.427Z" transform="translate(-1.559 -1.427)"/><g class="z" transform="translate(0 0)"><path class="aa" d="M6.979,0a16.6,16.6,0,0,1,.139,7.507C6.217,11.42,0,4.627,0,4.627Z" transform="translate(-2.541 1.613)"/></g></g><g transform="translate(-8470.193 -9461.775)"><path class="e" d="M23.885,9.924c-1.2.72-12.077,3.163-13.551,3.6s-5.775-.091-6.285-3.4.8-4.9,4.343-6.035S21.387,1.955,22.454,2.04s3.058,1.8,2.975,3.4S25.082,9.2,23.885,9.924Z" transform="translate(-3.944 -2.035)"/><g class="ab" transform="translate(0 0)"><path class="ac" d="M0,4.2s10.224,9.6,13.716,8.338S16.407,0,12.784,0,0,4.2,0,4.2Z" transform="translate(5.729 -2.795)"/></g></g><g transform="translate(-8454.864 -9462.208)"><path class="f" d="M13.4,8.987l-6.2.97Q3.488,6.709,6.37,2.812a44.165,44.165,0,0,1,5.777-1.325Z" transform="translate(-5.112 -1.487)"/><g class="ad" transform="translate(0 0)"><path class="ae" d="M0,7.447V.782C0-.859,7.83,4.025,7.83,4.025S4.543,6.913,3.052,7.447A5.164,5.164,0,0,1,0,7.447Z" transform="translate(2.951 2.094)"/></g></g><g transform="translate(-8468.999 -9489.495)"><g transform="translate(0 0)"><path class="af" d="M19.942,4.64c0,.307-.513,5.131-2.507,7.579C14.928,15.3,6.949,13.47,8.076,15.885c3.482,7.458,20.611,16.288,32.2,16.288,9.395,0,21.931-4.161,32.331-15.235,1.685-1.794-9.926-1.433-16.062-5.786q-1.73-1.228-3.369-5.792Q19.942,3.02,19.942,4.64Z" transform="translate(-7.968 -3.977)"/><path class="ag" d="M19.942,4.64c0,.307-.513,5.131-2.507,7.579C14.928,15.3,6.949,13.47,8.076,15.885c3.482,7.458,20.611,16.288,32.2,16.288,9.395,0,21.931-4.161,32.331-15.235,1.685-1.794-9.926-1.433-16.062-5.786q-1.73-1.228-3.369-5.792Q19.942,3.02,19.942,4.64Z" transform="translate(-7.968 -3.977)"/><path class="ah" d="M19.942,4.64c0,.307-.513,5.131-2.507,7.579C14.928,15.3,6.949,13.47,8.076,15.885c3.482,7.458,20.611,16.288,32.2,16.288,9.395,0,21.931-4.161,32.331-15.235,1.685-1.794-9.926-1.433-16.062-5.786q-1.73-1.228-3.369-5.792Q19.942,3.02,19.942,4.64Z" transform="translate(-7.968 -3.977)"/></g><g class="ai" transform="translate(0 0)"><path class="aj" d="M1.437,6.067C3.3,7.115,14.549,9.889,17.171,4.527S1.437,2.6,1.437,2.6-.426,5.018,1.437,6.067Z" transform="translate(21.904 1.648)"/><path class="ak" d="M0,10.785C0,8.018,1.141,4.9,4.289,1.435s5.846,9.35,5.846,9.35S0,13.552,0,10.785Z" transform="translate(33.672 5.263)"/><path class="al" d="M-49.482,10.785c0-2.767-1.141-5.888-4.289-9.35s-5.846,9.35-5.846,9.35S-49.482,13.552-49.482,10.785Z" transform="translate(79.178 5.263)"/></g></g><path class="am" d="M21.093,13.748H1.883V1.678h19.21Z" transform="translate(-8451.516 -9547.836)"/><g transform="translate(-8449.199 -9541.818)"><path class="h" d="M18.925,7.778c0,1.823.137,2.7-.821,4.3s-5.857,11.229-2.518,15.535,17.06,4.65,17.641-1.029-3.071-13.291-4.149-15.446a7.7,7.7,0,0,1-.4-5.633C29.078,4.569,18.925,5.955,18.925,7.778Z" transform="translate(-14.436 -5.204)"/><g class="an" transform="translate(0)"><path class="ao" d="M1.1,12.451c2.873-4.613,3.811-7.072,3.811-10.9s5.3,10.9,5.3,10.9S-1.777,17.064,1.1,12.451Z" transform="translate(9.087 12.088)"/><path class="ap" d="M0,2.021s10.936,8.765,12.666,8.765S10.141,0,10.141,0Z" transform="translate(4.419 0.953)"/></g></g><g transform="translate(-8449.568 -9560.947)"><path class="i" d="M13.112,24.969H11.3C8.07,24.969,4.33,21.7,4,17.658l-.711-8.67A6.633,6.633,0,0,1,10,1.678h4.59A6.633,6.633,0,0,1,21.3,8.988l-.711,8.67C20.257,21.69,16.357,24.959,13.112,24.969Z" transform="translate(-3.263 -1.678)"/><g class="aq" transform="translate(0 0)"><path class="ar" d="M3,3a2.89,2.89,0,0,0,3.57.17" transform="translate(0.525 8.615)"/><path class="as" d="M3,3A6.08,6.08,0,0,0,6.57,3" transform="translate(4.436 16.435)"/><path class="ar" d="M3,3a2.89,2.89,0,0,0,3.57.17" transform="translate(8.006 8.615)"/><path class="at" d="M2.826,9.124c.31-.145,1.19.34,1.19.34s.706-.326.68-.85.291-4.314.34-4.76a40.966,40.966,0,0,1,.68,4.42c-.015.2.68,1.02.68,1.02a7.03,7.03,0,0,1-1.7.85C4.321,10.142,2.516,9.269,2.826,9.124Z" transform="translate(4.44 7.761)"/><path class="au" d="M2.667,0S2.235,11.536,3.952,14.317s1.36,4.47,1.36,4.47L0,14.317Z" transform="translate(-0.422 4.194)"/><path class="av" d="M2,2.17c.36.12.689.083,1.02.34a1.587,1.587,0,0,0,1.02.34c.3-.006.534-.463.85-.51s.738-.115.85-.34" transform="translate(5.266 15.055)"/></g></g><g transform="translate(-8455.342 -9566.389)"><path class="j" d="M8.572,7.6l.114,2.667a1.36,1.36,0,0,0,1.359,1.3h9.263a1.36,1.36,0,0,0,1.36-1.36V7.43a57.92,57.92,0,0,1,2.006,12.825c0,4.23.794,10.922.884,12.587s6.171,5.184,7.225,4.08-3.087-18.508-4.2-24.945-5-12.244-12.8-11.968S3.052,8.515,2.534,12.588-.747,35.523.194,36.922s6.676-2.581,6.676-4.08V20.254C6.869,16.025,8.572,7.6,8.572,7.6Z" transform="translate(0 0)"/><g class="aw" transform="translate(0)"><ellipse class="ax" cx="9.18" cy="3.655" rx="9.18" ry="3.655" transform="translate(5.558 -3.685)"/></g></g><g transform="translate(-8448.783 -9524.6)"><path class="a" d="M8.228,22.758c0,3.84,3.167,6.3,8.13,6.3s8.066-2.188,8.32-6.38q2.392,6.3,1.345,39.364a17.932,17.932,0,0,1-8.6,2.14c-4.314-.072-8.985-1.818-10.177-4.288S8.228,18.918,8.228,22.758Z" transform="translate(-6.887 -22.489)"/><g class="ay" transform="translate(0 0)"><g class="az" transform="translate(2.717 11.39)"><path class="ba" d="M13.317.532c-1.3,4.794-4.455,10.559-7.6,12.733s2.794,3.683,1.905,4.87a56.625,56.625,0,0,1-6.164,6.334c-1.892,1.563,0,6.466,0,6.466s16.5,6.164,17.37,0S14.617-4.263,13.317.532Z" transform="translate(-0.618 0)"/><path class="bb" d="M13.317.532c-1.3,4.794-4.455,10.559-7.6,12.733s2.794,3.683,1.905,4.87a56.625,56.625,0,0,1-6.164,6.334c-1.892,1.563,0,6.466,0,6.466s16.5,6.164,17.37,0S14.617-4.263,13.317.532Z" transform="translate(-0.618 0)"/></g></g></g><path class="bc" d="M7.557,9.586c-2.157,1.84-2.98,2.422-3.432,4.085S5.64,20.113,8.247,22.25s3.025-1.022,3-1.022-1.41-4.688-.963-5.9,1.864-2.079,2.155-2.884S9.714,7.746,7.557,9.586Z" transform="translate(-8483.074 -9504.863)"/><path class="bd" d="M7.965,9.586c2.157,1.84,2.98,2.422,3.432,4.085S9.881,20.113,7.274,22.25s-3.025-1.022-3-1.022,1.41-4.688.963-5.9-1.864-2.079-2.155-2.884S5.808,7.746,7.965,9.586Z" transform="translate(-8405.404 -9504.863)"/><g transform="translate(-8476.479 -9536.604)"><g transform="translate(0 0)"><path class="be" d="M2.21,43.628a66.008,66.008,0,0,0,7.412-6.46c.589-.55,6.2-22.891,8.215-25.243S32.275,3.036,33.6,1.871c-.1,1.172-3.375,5.411,3.35,6.984-5.668,5.374-3.763,10.04-3.35,13.958s-.413,10.117-.413,16.005,0,8.511.413,17.1,3.151,10.448,1.576,12.017-11.515-2.059-13.785-2.973-2.819-6.718-1.409-12.326a59.969,59.969,0,0,0,1.949-12.62c0-2.169.588-9.285-.539-6.326s-2.53,9.252-4.473,11.947-4.889,1.4-8.794,1.4C6.556,42.289,3.5,42.8,2.21,43.628l-.234.17A2.5,2.5,0,0,1,2.21,43.628Z" transform="translate(-1.977 -1.871)"/><path class="g" d="M2.21,43.628a66.008,66.008,0,0,0,7.412-6.46c.589-.55,6.2-22.891,8.215-25.243S32.275,3.036,33.6,1.871c-.1,1.172-3.375,5.411,3.35,6.984-5.668,5.374-3.763,10.04-3.35,13.958s-.413,10.117-.413,16.005,0,8.511.413,17.1,3.151,10.448,1.576,12.017-11.515-2.059-13.785-2.973-2.819-6.718-1.409-12.326a59.969,59.969,0,0,0,1.949-12.62c0-2.169.588-9.285-.539-6.326s-2.53,9.252-4.473,11.947-4.889,1.4-8.794,1.4C6.556,42.289,3.5,42.8,2.21,43.628l-.234.17A2.5,2.5,0,0,1,2.21,43.628Z" transform="translate(-1.977 -1.871)"/></g><g class="bf" transform="translate(0 0)"><g transform="translate(1.704 6.822)"><circle class="bg" cx="0.85" cy="0.85" r="0.85" transform="translate(9.86 26.521)"/><circle class="bg" cx="0.85" cy="0.85" r="0.85" transform="translate(13.43 21.25)"/><circle class="bg" cx="0.85" cy="0.85" r="0.85" transform="translate(15.64 12.75)"/><circle class="bg" cx="0.85" cy="0.85" r="0.85" transform="translate(19.38 15.81)"/><circle class="bg" cx="0.85" cy="0.85" r="0.85" transform="translate(25.161 15.98)"/><circle class="bg" cx="0.85" cy="0.85" r="0.85" transform="translate(24.651 9.69)"/><circle class="bg" cx="0.85" cy="0.85" r="0.85" transform="translate(18.87 6.12)"/><circle class="bg" cx="0.85" cy="0.85" r="0.85" transform="translate(26.011 3.74)"/><circle class="bg" cx="0.85" cy="0.85" r="0.85" transform="translate(21.761)"/><circle class="bg" cx="0.85" cy="0.85" r="0.85" transform="translate(14.79 0.85)"/><circle class="bg" cx="0.85" cy="0.85" r="0.85" transform="translate(13.26 6.8)"/><circle class="bg" cx="0.85" cy="0.85" r="0.85" transform="translate(9.86 10.71)"/><circle class="bg" cx="0.85" cy="0.85" r="0.85" transform="translate(9.86 16.66)"/><circle class="bg" cx="0.85" cy="0.85" r="0.85" transform="translate(6.46 22.441)"/><circle class="bg" cx="0.85" cy="0.85" r="0.85" transform="translate(5.44 31.791)"/><circle class="bg" cx="0.85" cy="0.85" r="0.85" transform="translate(0 32.131)"/><circle class="bg" cx="0.85" cy="0.85" r="0.85" transform="translate(5.78 35.701)"/><circle class="bg" cx="0.85" cy="0.85" r="0.85" transform="translate(11.73 32.981)"/><circle class="bg" cx="0.85" cy="0.85" r="0.85" transform="translate(25.161 22.781)"/><circle class="bg" cx="0.85" cy="0.85" r="0.85" transform="translate(19.21 21.59)"/><circle class="bg" cx="0.85" cy="0.85" r="0.85" transform="translate(21.42 29.921)"/><circle class="bg" cx="0.85" cy="0.85" r="0.85" transform="translate(26.861 29.241)"/><circle class="bg" cx="0.85" cy="0.85" r="0.85" transform="translate(26.861 38.251)"/><circle class="bg" cx="0.85" cy="0.85" r="0.85" transform="translate(19.55 39.271)"/><circle class="bg" cx="0.85" cy="0.85" r="0.85" transform="translate(22.781 34.681)"/><circle class="bg" cx="0.85" cy="0.85" r="0.85" transform="translate(25.501 44.371)"/></g><path class="bh" d="M-89.278,11.5c-7.349,0-12.121,3.379-14.172,0S-89.278,0-89.278,0-81.929,11.5-89.278,11.5Z" transform="translate(120.553 -6.494)"/><path class="bi" d="M5.967,21.663C3.8,13.163,4.922,3.139,3.119.839S2.191,8.77,2.191,8.77L0,19.208S8.129,30.163,5.967,21.663Z" transform="translate(17.252 30.481)"/><path class="bj" d="M12.993.7C10.168,3.336,8.926,8.123,7.374,9.47S0,13.846,0,13.846l9.8,1.9S15.817-1.931,12.993.7Z" transform="translate(6.357 31.279)"/></g></g><g transform="translate(-8438.163 -9536.828)"><g transform="translate(0 0)"><path class="be" d="M4.591,1.554C5.913,2.719,18.45,9.478,20.462,11.831s8.118,26.344,8.706,26.894,9.987,3.24,12.484,4.049c-.965,0-4.046,1.163-2.157,5.32,2.008.6-15.146,2.7-17.09,0S18.04,36.556,16.912,33.6s0,2.959,0,5.128,0,9.369,1.409,13.819.861,11.413-1.409,12.326S9.2,67.9,9.2,64.871c0,0-2.141-7.262-2.166-11.195-.019-3.041-1-15.031-1.306-18.758-.8-9.695-1.509-9.923-1.289-12.005.413-3.918,2.585-8.776-3.083-14.149C8.077,7.19,4.818,2.711,4.591,1.554Z" transform="translate(-1.353 -1.554)"/><path class="g" d="M4.591,1.554C5.913,2.719,18.45,9.478,20.462,11.831s8.118,26.344,8.706,26.894,9.987,3.24,12.484,4.049c-.965,0-4.046,1.163-2.157,5.32,2.008.6-15.146,2.7-17.09,0S18.04,36.556,16.912,33.6s0,2.959,0,5.128,0,9.369,1.409,13.819.861,11.413-1.409,12.326S9.2,67.9,9.2,64.871c0,0-2.141-7.262-2.166-11.195-.019-3.041-1-15.031-1.306-18.758-.8-9.695-1.509-9.923-1.289-12.005.413-3.918,2.585-8.776-3.083-14.149C8.077,7.19,4.818,2.711,4.591,1.554Z" transform="translate(-1.353 -1.554)"/></g><g class="bk" transform="translate(0 0)"><g transform="translate(4.7 7.556)"><circle class="bg" cx="0.85" cy="0.85" r="0.85" transform="translate(4.08 0.51)"/><circle class="bg" cx="0.85" cy="0.85" r="0.85" transform="translate(11.22)"/><circle class="bg" cx="0.85" cy="0.85" r="0.85" transform="translate(13.09 6.46)"/><circle class="bg" cx="0.85" cy="0.85" r="0.85" transform="translate(7.48 6.46)"/><circle class="bg" cx="0.85" cy="0.85" r="0.85" transform="translate(0 4.59)"/><circle class="bg" cx="0.85" cy="0.85" r="0.85" transform="translate(2.04 10.54)"/><circle class="bg" cx="0.85" cy="0.85" r="0.85" transform="translate(11.05 12.75)"/><circle class="bg" cx="0.85" cy="0.85" r="0.85" transform="translate(17.17 10.03)"/><circle class="bg" cx="0.85" cy="0.85" r="0.85" transform="translate(17 16.32)"/><circle class="bg" cx="0.85" cy="0.85" r="0.85" transform="translate(7.48 16.15)"/><circle class="bg" cx="0.85" cy="0.85" r="0.85" transform="translate(1.7 16.66)"/><circle class="bg" cx="0.85" cy="0.85" r="0.85" transform="translate(2.55 23.631)"/><circle class="bg" cx="0.85" cy="0.85" r="0.85" transform="translate(1.36 30.091)"/><circle class="bg" cx="0.85" cy="0.85" r="0.85" transform="translate(6.46 30.091)"/><circle class="bg" cx="0.85" cy="0.85" r="0.85" transform="translate(5.78 35.021)"/><circle class="bg" cx="0.85" cy="0.85" r="0.85" transform="translate(2.21 38.931)"/><circle class="bg" cx="0.85" cy="0.85" r="0.85" transform="translate(3.74 45.221)"/><circle class="bg" cx="0.85" cy="0.85" r="0.85" transform="translate(9.69 43.691)"/><circle class="bg" cx="0.85" cy="0.85" r="0.85" transform="translate(10.03 38.591)"/><circle class="bg" cx="0.85" cy="0.85" r="0.85" transform="translate(7.99 21.761)"/><circle class="bg" cx="0.85" cy="0.85" r="0.85" transform="translate(13.77 21.25)"/><circle class="bg" cx="0.85" cy="0.85" r="0.85" transform="translate(19.89 20.74)"/><circle class="bg" cx="0.85" cy="0.85" r="0.85" transform="translate(17.68 26.011)"/><circle class="bg" cx="0.85" cy="0.85" r="0.85" transform="translate(16.32 32.641)"/><circle class="bg" cx="0.85" cy="0.85" r="0.85" transform="translate(22.611 30.771)"/><circle class="bg" cx="0.85" cy="0.85" r="0.85" transform="translate(22.781 34.851)"/><circle class="bg" cx="0.85" cy="0.85" r="0.85" transform="translate(29.581 33.491)"/></g><path class="bl" d="M0,26.455c0-4.9,4.83-18.879,5.07-20.6S5.92,0,5.92,0L9.81,17.041v4.854S0,31.359,0,26.455Z" transform="translate(9.242 31.418)"/><path class="bm" d="M3.266,11.5c7.349,0,12.121,3.379,14.172,0S3.266,0,3.266,0-4.083,11.5,3.266,11.5Z" transform="translate(-1.16 -6.27)"/><path class="bn" d="M.6.7C2.04,3.206,7.3,11.386,9.031,12.547s6.387,2.373,6.387,2.373L6.558,17.9l-2.18-3.989S-.833-1.8.6.7Z" transform="translate(14.64 30.931)"/></g></g><g transform="translate(-8451.889 -9492.462)"><g transform="translate(0 0)"><path class="af" d="M12.584,43.528c2.66-2.8,30.064-24.021,35.621-26.728s13.8-5.384,16.537-.78-.186,8.719-6.411,14.32S21.975,49.173,17.541,51.011,9.924,46.324,12.584,43.528Z" transform="translate(-11.613 -13.526)"/><path class="bo" d="M12.584,43.528c2.66-2.8,30.064-24.021,35.621-26.728s13.8-5.384,16.537-.78-.186,8.719-6.411,14.32S21.975,49.173,17.541,51.011,9.924,46.324,12.584,43.528Z" transform="translate(-11.613 -13.526)"/><path class="bp" d="M12.584,43.528c2.66-2.8,30.064-24.021,35.621-26.728s13.8-5.384,16.537-.78-.186,8.719-6.411,14.32S21.975,49.173,17.541,51.011,9.924,46.324,12.584,43.528Z" transform="translate(-11.613 -13.526)"/></g><g class="bq" transform="translate(0 0)"><path class="br" d="M15.471,9.5C9.177,8.919,0,3.974,0,3.974L5.872,0l10.8,7.582S21.765,10.083,15.471,9.5Z" transform="translate(0.01 24.483)"/><path class="af" d="M1.041.129c2.138.593,14.206,7.642,17.21,8.66s-1.958,4.275-4.059,5.156S-.439,4.339.194,2.718-1.1-.465,1.041.129Z" transform="translate(12.439 18.194)"/></g></g><g transform="translate(-8475.01 -9492.462)"><path class="af" d="M64.8,43.528c-2.66-2.8-30.064-24.021-35.621-26.728s-13.8-5.384-16.537-.78.186,8.719,6.411,14.32S55.41,49.173,59.844,51.011,67.46,46.324,64.8,43.528Z" transform="translate(-11.613 -13.526)"/><path class="bs" d="M64.8,43.528c-2.66-2.8-30.064-24.021-35.621-26.728s-13.8-5.384-16.537-.78.186,8.719,6.411,14.32S55.41,49.173,59.844,51.011,67.46,46.324,64.8,43.528Z" transform="translate(-11.613 -13.526)"/><path class="bt" d="M64.8,43.528c-2.66-2.8-30.064-24.021-35.621-26.728s-13.8-5.384-16.537-.78.186,8.719,6.411,14.32S55.41,49.173,59.844,51.011,67.46,46.324,64.8,43.528Z" transform="translate(-11.613 -13.526)"/></g><path class="bu" d="M4.914,1.885c-2.493,1.96-2.889,5.7-2.641,7.453A35.116,35.116,0,0,0,4.326,15.7a12.579,12.579,0,0,1,4-6.8C6.128,8.071,3.679,6.5,4.914,1.885Z" transform="translate(-8449.747 -9538.486)"/><g transform="translate(-8438.357 -9536.771)"><path class="k" d="M4.628,1.885c2.493,1.96,2.889,5.7,2.641,7.453A35.118,35.118,0,0,1,5.217,15.7a12.578,12.578,0,0,0-4-6.8C3.414,8.071,5.864,6.5,4.628,1.885Z" transform="translate(-1.213 -1.885)"/><g class="bv" transform="translate(0 0)"><path class="bw" d="M3.681,11C5.5,9.247,9.872,2.2,4.716.508S.645,8.622.645,8.622,1.861,12.749,3.681,11Z" transform="translate(-2.449 -0.762)"/></g></g><g transform="translate(-16095 -5297)"><path class="bx" d="M1.051,1.988Q17.606,6.631,25.181,3.37,17.2,10.316,12.459,9.549C7.723,8.782,2.87,3.37,1.051,1.988Z" transform="translate(7586.203 -4229.502)"/><path class="by" d="M1.006,1.988h19.87c0,10.382,5.64,14.133,11.656,15.4-7.029,3.96-20.2,1.718-23.935-1.555S2.647,11.267,1.006,1.988Z" transform="translate(7572.3 -4238.683)"/></g><g transform="translate(-16108 -5300)"><path class="bz" d="M2.435,1.575A17.932,17.932,0,0,1,4.122,3.462,6.2,6.2,0,0,1,5.311,6.528c-.367.242-2.466-1.152-2.876-2.284A4.857,4.857,0,0,1,2.435,1.575Z" transform="translate(7741.951 -4216.58)"/><path class="ca" d="M1.883,14.643Q9.119,9.7,9.469,2.333c1.267-.189,3.713.047,9.853,1.114q.858.149.152,2.721,3.1,1.139,2.845,2.169c-1.5,5.956-3.485,8.672-6.48,9.948Q10.685,18.94,1.883,14.643Z" transform="translate(7724.916 -4218.52)"/></g><g transform="translate(-16099.595 -5299)"><path class="bz" d="M4.258,1.269A16.571,16.571,0,0,1,4.25,3.607,5.732,5.732,0,0,1,3.171,6.448c-.4-.061-.981-2.316-.563-3.347A4.489,4.489,0,0,1,4.258,1.269Z" transform="translate(7626.604 -4269.744)"/><path class="cb" d="M1.039,5.659Q9.063,6.741,13.861,1.9c.987.653,2.521,2.328,6.077,6.858q.5.633-1.578,1.962,1.428,2.7.613,3.249c-4.714,3.163-7.756,3.8-10.6,2.825Q4.427,14.053,1.039,5.659Z" transform="translate(7610.864 -4277.368)"/></g><g transform="translate(-16095 -5306)"><path class="cc" d="M14.264,1.869C12.527,6.7,6.874,9.493,1.167,10.551a105.309,105.309,0,0,0,10.9,13.573c.19.2.96.51,1.163.674,1.225.988,2.535.43,3.216.42,3.366-1.054,6.354-1.506,9.156-4.048a17.63,17.63,0,0,0,2.842-3.08C27.61,15.536,23.466,13.3,14.264,1.869Z" transform="translate(7689.639 -4258.475)"/><path class="cd" d="M5.329,5.723C5.393,7.139,2.9,8.435,1.479,7.045a5.352,5.352,0,0,0,4.01,1.674c1.126,0,6.384.009,12.656-7.409C12.6,7.351,8.39,8.9,5.329,5.723Z" transform="translate(7699.921 -4241.69)"/></g><path class="ce" d="M19.648,18.409,2.906,11.032a.85.85,0,0,1,.129-1.6l32.052-8.3L52.359,8.993Z" transform="translate(-8391.083 -9463.566)"/><path class="cf" d="M40.06,1.89,9.706,7.733a2.55,2.55,0,0,0-2,1.9L1.159,36.616l31.154-7.76a2.21,2.21,0,0,0,1.581-1.5L41.229,3.187a1.02,1.02,0,0,0-1.169-1.3Z" transform="translate(-8372.373 -9481.694)"/><path class="cg" d="M9.2,8.594C7.745,9.55,6.112,9.76,5.26,8.466S5.42,5.452,6.871,4.5s2.915-1.143,3.767.151S10.646,7.639,9.2,8.594Z" transform="translate(-8358.178 -9468.955)"/><g transform="translate(-8523.904 -9459.91)"><path class="ch" d="M11.2,1c5.633,0,10.2.989,10.2,2.21S16.834,5.42,11.2,5.42,1,4.431,1,3.21,5.567,1,11.2,1Z" transform="translate(-1 11.92)"/><g transform="translate(0.51 2.04)"><path class="ci" d="M24.283,2.232a8.914,8.914,0,0,1,1.2,4.442c0,5.68-5.48,10.285-12.24,10.285S1,12.355,1,6.674A8.946,8.946,0,0,1,2.335,2C7.757,2.857,18.55,2.8,24.283,2.232Z" transform="translate(-1 -1.999)"/></g><g transform="translate(1.7 0)"><path class="m" d="M13.135,1C19.285,1,24.27,2.18,24.27,3.635S19.285,6.27,13.135,6.27,2,5.09,2,3.635,6.985,1,13.135,1Z" transform="translate(-2 -1)"/></g></g><path class="n" d="M11.71,32.111A35.627,35.627,0,0,0,4.4,15.28C1.438,11.425,1.428,2.035,1,1c2.325.8,6.5,2.86,10.71,8.67C16.123,15.761,13.324,28.182,11.71,32.111Z" transform="translate(-8523.715 -9491.342)"/><g class="cl" transform="translate(-8522.715 -9490.342)"><path class="cm" d="M6.5,25.781C6.961,15.551,5.688,9.095,1.683,3" transform="translate(4.043 5.33)"/></g><path class="o" d="M20.15,21.919A29.7,29.7,0,0,0,8.914,11.54c-3.557-1.945-6.72-9.1-7.4-9.748,2.043-.171,5.922,0,11.087,3.014C18.021,7.968,20.06,18.381,20.15,21.919Z" transform="translate(-8532.136 -9476.83)"/><g class="cn" transform="translate(-8530.617 -9475.084)"><path class="cm" d="M13.025,19.823C9.94,11.866,6.8,7.37,1.694,4.068" transform="translate(5.476 0.407)"/></g><path class="p" d="M3.633,24.255a29.789,29.789,0,0,1,9.845-11.784c3.29-2.4,5.513-9.93,6.1-10.66-2.057.093-5.9.761-10.653,4.431C3.943,10.089,3.263,20.721,3.633,24.255Z" transform="translate(-8514.27 -9478.754)"/><g class="co" transform="translate(-8510.721 -9476.943)"><path class="cm" d="M1.513,19.062C3.553,10.742,6.1,5.86,10.755,1.913" transform="translate(-1.859 3.374)"/></g><path class="cp" d="M12.54,1A10.54,10.54,0,1,1,2,11.54,10.54,10.54,0,0,1,12.54,1Z" transform="translate(-8362.531 -9575.664)"/><g class="cq" transform="translate(-8360.531 -9574.664)"><path class="cr" d="M7.756,4.659v7.584l3.471,3.471" transform="translate(2.913 -1.317)"/></g></g></svg>